<svg width="171" height="171" viewBox="0 0 171 171" fill="none" xmlns="http://www.w3.org/2000/svg">
<rect width="171" height="171" fill="#1D1D20"/>
<path d="M89.5495 131.152V116.304C98.3815 115.408 102.99 111.184 102.99 105.424C102.99 97.36 95.6935 94.672 81.9975 91.344C68.8135 88.144 54.4775 81.872 54.4775 64.848C54.4775 49.744 67.7895 40.272 82.6375 39.248V54.096C74.9575 55.12 70.7335 59.472 70.7335 64.848C70.7335 71.248 76.2375 74.576 89.9335 78.032C104.782 81.872 119.246 86.48 119.246 105.424C119.246 120.784 107.214 130.128 89.5495 131.152ZM117.838 65.616H102.094C100.43 59.472 95.8215 55.376 89.5495 54.224V39.248C103.63 40.656 116.174 48.848 117.838 65.616ZM82.6375 116.176V131.152C67.7895 130 55.1175 121.552 52.8135 103.888H69.1975C71.1175 111.184 75.8535 115.152 82.6375 116.176Z" fill="#6CFFA9"/>
</svg>
