<svg fill="none" height="93" viewBox="0 0 416 93" width="416" xmlns="http://www.w3.org/2000/svg"><path d="m4.5465 47.608c0 7.552 14.592 8.704 29.056 9.728 20.864 1.408 31.36 4.096 31.36 15.104 0 10.752-10.368 19.84-30.336 19.84-19.84 0-32.768-13.184-33.664-27.264h1.664c2.304 8.704 11.392 14.464 32 14.464 11.776 0 27.52-1.408 27.52-8.832 0-7.04-10.368-10.112-28.544-11.008-14.976-.768-31.872-1.792-31.872-13.696 0-10.752 13.696-20.224 30.848-20.224 17.408 0 29.184 9.984 31.104 23.68h-1.92c-2.56-7.936-16.512-10.88-29.184-10.88-11.008 0-28.032 1.664-28.032 9.088zm134.6065-20.608v64h-2.56v-18.432h-.641c-4.863 13.568-15.615 19.712-26.879 19.712-14.0805 0-30.0805-6.144-30.0805-31.872v-33.408h2.432v33.408c0 17.536 19.2005 19.072 27.6485 19.072s27.52-1.536 27.52-19.072v-33.408zm-2.56 43.648v-.128zm50.51-44.928c14.08 0 30.08 6.144 30.08 31.872v33.408h-2.432v-33.408c0-17.536-19.2-19.072-27.648-19.072s-27.52 1.536-27.52 19.072v33.408h-2.56v-64h2.56v18.432h.64c4.864-13.568 15.616-19.712 26.88-19.712zm-27.52 21.632v.128zm74.19-45.95201h2.56v89.60001h-2.56zm15.38-1.279995h15.36v15.360005h-15.36zm6.4 26.880005h2.56v64h-2.56zm51.16 52.48c18.56 0 28.544-4.608 30.848-14.592h2.048c-2.56 15.744-15.36 27.392-32.896 27.392-19.328 0-33.28-14.464-33.28-33.024 0-18.816 13.952-33.536 33.28-33.536 18.816 0 31.872 13.568 32.896 31.36h-63.744c-.128.768-.128 1.408-.128 2.176 0 13.824 9.471 20.224 30.976 20.224zm0-41.6c-19.072 0-28.8 5.632-30.592 16.896h61.312c-1.792-11.264-11.392-16.896-30.72-16.896zm47.959 9.728c0 7.552 14.592 8.704 29.056 9.728 20.864 1.408 31.36 4.096 31.36 15.104 0 10.752-10.368 19.84-30.336 19.84-19.84 0-32.768-13.184-33.664-27.264h1.664c2.304 8.704 11.392 14.464 32 14.464 11.776 0 27.519-1.408 27.519-8.832 0-7.04-10.367-10.112-28.543-11.008-14.976-.768-31.872-1.792-31.872-13.696 0-10.752 13.696-20.224 30.848-20.224 17.408 0 29.184 9.984 31.104 23.68h-1.92c-2.561-7.936-16.512-10.88-29.184-10.88-11.008 0-28.032 1.664-28.032 9.088z" fill="#6cffa9"/></svg>