<svg width="526" height="95" viewBox="0 0 526 95" fill="none" xmlns="http://www.w3.org/2000/svg">
<path d="M37.502 93.152V78.304C46.334 77.408 50.942 73.184 50.942 67.424C50.942 59.36 43.646 56.672 29.95 53.344C16.766 50.144 2.43002 43.872 2.43002 26.848C2.43002 11.744 15.742 2.272 30.59 1.24799V16.096C22.91 17.12 18.686 21.472 18.686 26.848C18.686 33.248 24.19 36.576 37.886 40.032C52.734 43.872 67.198 48.48 67.198 67.424C67.198 82.784 55.166 92.128 37.502 93.152ZM65.79 27.616H50.046C48.382 21.472 43.774 17.376 37.502 16.224V1.24799C51.582 2.656 64.126 10.848 65.79 27.616ZM30.59 78.176V93.152C15.742 92 3.07001 83.552 0.766015 65.888H17.15C19.07 73.184 23.806 77.152 30.59 78.176ZM117.827 77.28V93.152C100.035 91.616 85.315 78.048 85.315 57.568V2.39999H101.571V57.056C101.571 67.808 107.843 75.744 117.827 77.28ZM124.739 93.152V77.28C134.851 75.744 140.995 67.808 140.995 57.056V2.39999H157.379V57.568C157.379 78.048 142.659 91.488 124.739 93.152ZM252.309 94.304H252.053L178.453 20.448V0.095993H178.709L252.309 73.952V94.304ZM252.309 2.39999V63.968L236.565 48.352V2.39999H252.309ZM194.197 92H178.453V30.432L194.197 46.048V92ZM290.579 92H274.323V2.39999H290.579V92ZM330.387 92H297.619V77.152H330.387V92ZM363.199 92H346.943V2.39999H363.199V92ZM401.444 92H385.188V2.39999H401.444V92ZM443.428 17.76H408.484V2.39999H443.428V17.76ZM439.716 53.728H408.484V39.392H439.716V53.728ZM443.428 92H408.484V76.64H443.428V92ZM495.597 93.152V78.304C504.429 77.408 509.037 73.184 509.037 67.424C509.037 59.36 501.741 56.672 488.045 53.344C474.861 50.144 460.525 43.872 460.525 26.848C460.525 11.744 473.837 2.272 488.685 1.24799V16.096C481.005 17.12 476.781 21.472 476.781 26.848C476.781 33.248 482.285 36.576 495.981 40.032C510.829 43.872 525.293 48.48 525.293 67.424C525.293 82.784 513.261 92.128 495.597 93.152ZM523.885 27.616H508.141C506.477 21.472 501.869 17.376 495.597 16.224V1.24799C509.677 2.656 522.221 10.848 523.885 27.616ZM488.685 78.176V93.152C473.837 92 461.165 83.552 458.861 65.888H475.245C477.165 73.184 481.901 77.152 488.685 78.176Z" fill="#6CFFA9"/>
</svg>
